HIERARCHY
ROOT root
{
	OFFSET 0.000000 0.000000 0.000000
	CHANNELS 6 Xposition Yposition Zposition Zrotation Yrotation Xrotation
	JOINT lhip
	{
		OFFSET 0.058581 -0.082280 -0.017664
		CHANNELS 3 Zrotation Yrotation Xrotation
		JOINT lknee
		{
			OFFSET 0.043451 -0.386469 0.008037
			CHANNELS 3 Zrotation Yrotation Xrotation
			JOINT lankle
			{
				OFFSET -0.014790 -0.426874 -0.037428
				CHANNELS 3 Zrotation Yrotation Xrotation
				JOINT ltoe
				{
					OFFSET 0.041054 -0.060286 0.122042
					CHANNELS 3 Zrotation Yrotation Xrotation
					End Site
					{
						OFFSET 0.000000 0.000000 0.000000
					}
				}
			}
		}
	}
	JOINT rhip
	{
		OFFSET -0.060310 -0.090513 -0.013543
		CHANNELS 3 Zrotation Yrotation Xrotation
		JOINT rknee
		{
			OFFSET -0.043257 -0.383688 -0.004843
			CHANNELS 3 Zrotation Yrotation Xrotation
			JOINT rankle
			{
				OFFSET 0.019056 -0.420046 -0.034562
				CHANNELS 3 Zrotation Yrotation Xrotation
				JOINT rtoe
				{
					OFFSET -0.034840 -0.062106 0.130323
					CHANNELS 3 Zrotation Yrotation Xrotation
					End Site
					{
						OFFSET 0.000000 0.000000 0.000000
					}
				}
			}
		}
	}
	JOINT lowerback
	{
		OFFSET 0.004439 0.124404 -0.038385
		CHANNELS 3 Zrotation Yrotation Xrotation
		JOINT upperback
		{
			OFFSET 0.004488 0.137956 0.026820
			CHANNELS 3 Zrotation Yrotation Xrotation
			JOINT chest
			{
				OFFSET -0.002265 0.056032 0.002855
				CHANNELS 3 Zrotation Yrotation Xrotation
				JOINT lowerneck
				{
					OFFSET -0.013390 0.211636 -0.033468
					CHANNELS 3 Zrotation Yrotation Xrotation
					JOINT upperneck
					{
						OFFSET 0.010113 0.088937 0.050410
						CHANNELS 3 Zrotation Yrotation Xrotation
						End Site
						{
							OFFSET 0.000000 0.000000 0.000000
						}
					}
				}
				JOINT lclavicle
				{
					OFFSET 0.071702 0.114000 -0.018898
					CHANNELS 3 Zrotation Yrotation Xrotation
					JOINT lshoulder
					{
						OFFSET 0.122921 0.045205 -0.019046
						CHANNELS 3 Zrotation Yrotation Xrotation
						JOINT lelbow
						{
							OFFSET 0.255332 -0.015649 -0.022946
							CHANNELS 3 Zrotation Yrotation Xrotation
							JOINT lwrist
							{
								OFFSET 0.265709 0.012698 -0.007375
								CHANNELS 3 Zrotation Yrotation Xrotation
								End Site
								{
									OFFSET 0.000000 0.000000 0.000000
								}
							}
						}
					}
				}
				JOINT rclavicle
				{
					OFFSET -0.082954 0.112472 -0.023707
					CHANNELS 3 Zrotation Yrotation Xrotation
					JOINT rshoulder
					{
						OFFSET -0.113228 0.046853 -0.008472
						CHANNELS 3 Zrotation Yrotation Xrotation
						JOINT relbow
						{
							OFFSET -0.260127 -0.014369 -0.031269
							CHANNELS 3 Zrotation Yrotation Xrotation
							JOINT rwrist
							{
								OFFSET -0.269108 0.006794 -0.006027
								CHANNELS 3 Zrotation Yrotation Xrotation
								End Site
								{
									OFFSET 0.000000 0.000000 0.000000
								}
							}
						}
					}
				}
			}
		}
	}
}
MOTION
Frames: 10
Frame Time: 0.033333
0.039367 -0.687488 0.998250 -1.864154 1.605249 90.327965 -1.371640 -1.787300 -6.948255 -5.220137 -4.269341 8.245624 4.613038 8.377073 -8.861939 0.000000 -0.000000 0.000000 5.187369 1.814096 -10.814103 -0.673767 0.168581 15.693420 1.875865 -5.380016 -9.095243 0.000000 -0.000000 0.000000 -0.919537 0.796610 9.554168 2.649147 -2.713450 -2.634982 1.938778 -0.647235 1.505452 -0.608463 8.889513 4.038711 -0.904359 5.630932 4.047812 -18.073777 -4.676898 1.591393 -64.381125 -9.927907 17.299206 -0.023948 -28.416365 25.109620 7.977511 -6.929905 -0.438269 19.227087 5.890608 0.824376 58.029925 8.724134 18.976344 -5.249198 31.300149 24.451226 -0.404568 3.586199 9.818087 
0.038886 -0.685990 0.998394 -2.219177 1.589747 90.367548 -1.268171 -1.858475 -7.292192 -5.344173 -4.137441 8.674718 4.362375 8.358006 -8.843926 0.000000 -0.000000 0.000000 5.305298 2.403264 -12.119211 -0.852114 0.516407 17.961032 2.289219 -5.471504 -9.524390 0.000000 -0.000000 0.000000 -1.331947 0.600202 9.997766 2.635230 -2.550103 -2.411826 2.074798 -0.573405 1.778357 -0.412495 9.597695 3.643739 -1.054268 6.077547 3.677514 -17.643079 -4.371528 1.269833 -64.549748 -9.595305 17.339644 0.074470 -29.269241 25.312553 8.187328 -6.540117 -1.007803 19.292013 5.909085 0.531070 58.393373 9.107746 19.529114 -5.156027 32.598110 25.152361 0.228298 3.467324 10.305380 
0.037706 -0.683355 0.998082 -2.538620 1.434714 90.398210 -1.321480 -2.037382 -7.945912 -5.405835 -3.866294 9.585676 3.956709 8.399615 -8.869840 0.000000 -0.000000 0.000000 5.304436 3.423764 -14.040422 -0.844327 1.191966 21.483355 2.765971 -5.577329 -11.108231 0.000000 -0.000000 0.000000 -1.975330 0.346794 10.790557 2.692584 -2.376628 -2.289320 2.173640 -0.566412 2.009202 -0.099009 10.773726 3.155286 -1.424447 6.545887 3.479784 -17.295069 -3.726496 1.037036 -64.806977 -9.051685 17.298725 0.579185 -30.655423 25.023487 8.556547 -6.246065 -1.410912 19.514757 5.762809 0.099002 58.792526 9.569233 20.357519 -4.791807 33.993482 26.213815 0.575887 3.437865 10.954933 
0.034550 -0.677763 0.996908 -2.451913 1.037475 89.894876 -1.377303 -2.654247 -8.623036 -5.638777 -3.713260 11.353879 3.431858 8.190094 -9.123831 0.000000 -0.000000 0.000000 5.234832 4.861480 -16.620454 -0.568892 2.764554 27.313407 3.156821 -5.279903 -12.582383 0.000000 -0.000000 0.000000 -2.830661 0.108352 12.910288 2.537725 -2.228593 -1.808069 2.124923 -0.574578 2.410565 0.146206 12.408374 2.087597 -1.764108 7.350092 2.931299 -17.163941 -3.148751 0.971322 -64.814579 -8.006347 16.976238 1.852165 -33.559709 23.681882 9.868762 -6.492519 -2.457752 20.326531 5.939215 -0.272745 58.851510 9.996346 21.182920 -4.115251 36.616546 27.514013 0.251175 4.107121 11.720860 
0.033257 -0.675505 0.996277 -2.174976 0.780913 89.607014 -1.466451 -2.887872 -8.817123 -5.809606 -3.889268 12.074264 3.180843 7.909204 -9.168537 0.000000 -0.000000 0.000000 5.117907 5.269801 -17.239914 -0.376024 3.548871 29.153400 3.286490 -4.837396 -12.387672 0.000000 -0.000000 0.000000 -3.115008 0.087385 13.886578 2.389964 -2.186554 -1.585611 2.071129 -0.564246 2.547917 0.088209 12.698723 1.657812 -1.867378 7.484128 2.484801 -17.246083 -2.855210 0.820449 -64.722640 -7.645486 16.823640 2.261396 -34.527649 23.018301 10.440804 -6.879785 -3.005741 20.517577 5.928591 -0.467597 58.799349 10.065850 21.455439 -3.682648 37.574477 28.016792 0.068792 4.458678 12.012327 
0.030440 -0.670141 0.994347 -1.192602 0.070211 89.017693 -1.773073 -3.366381 -9.544868 -6.338816 -4.384500 14.139562 2.432393 6.970106 -9.393293 0.000000 -0.000000 0.000000 4.710109 6.027971 -18.146881 0.061332 5.472725 32.260210 3.311192 -3.764840 -12.045117 0.000000 -0.000000 0.000000 -3.577443 0.119054 16.090125 1.940432 -2.042064 -1.301163 1.819771 -0.447127 2.904385 -0.112687 12.962291 0.583450 -1.836189 7.370176 1.742561 -17.502289 -2.068558 0.381266 -64.333600 -6.979219 16.312884 2.843045 -35.887854 21.607221 11.046519 -7.960119 -4.462325 20.694675 5.725107 -0.738012 58.584950 10.034771 21.827671 -3.055204 39.549553 29.035109 0.101094 5.229697 12.963569 
0.027348 -0.663949 0.991155 0.491986 -0.892536 88.485343 -2.109100 -4.084991 -10.661635 -7.383125 -5.264431 16.734856 1.446619 5.510392 -10.369043 0.000000 -0.000000 0.000000 3.810703 6.103715 -18.924165 0.097834 6.218046 34.187645 3.389518 -3.850601 -13.058337 0.000000 -0.000000 0.000000 -3.799179 0.464316 18.642689 1.324984 -1.951636 -1.232152 1.496567 -0.274963 3.116872 -0.402179 12.484854 -0.419030 -1.578478 6.709798 0.450884 -17.914336 -1.207255 0.058163 -63.767233 -6.225133 15.440628 4.009206 -36.327438 20.025853 10.902650 -9.197284 -5.761142 20.411215 5.403490 -1.072132 58.173740 9.119169 21.717229 -3.247522 41.379977 29.443669 -0.307136 6.279028 14.117463 
0.023479 -0.657226 0.986053 2.833194 -1.728205 88.294097 -1.919716 -4.537728 -12.706542 -9.349685 -7.137500 20.194787 0.409229 3.150735 -11.927349 0.000000 -0.000000 0.000000 2.974926 5.454600 -19.568397 0.198977 6.203973 35.242052 2.821233 -4.459667 -15.101915 0.000000 -0.000000 0.000000 -3.441543 0.904963 20.825320 0.771214 -1.875905 -1.119721 1.031395 -0.227247 3.244805 -0.703762 11.359696 -1.094799 -1.332048 5.667127 -1.121186 -18.570429 -0.321907 -0.007700 -62.379298 -5.336939 13.803821 5.947716 -35.964707 19.451759 10.601780 -9.849346 -4.647648 19.835976 5.073685 -1.146580 57.334660 7.644787 20.431830 -4.745182 42.011824 29.498432 -1.324155 7.490093 15.744068 
0.019170 -0.650453 0.979639 5.740429 -2.428347 88.702996 -1.409155 -4.730992 -15.514788 -12.137331 -10.176711 23.771777 -1.218498 0.372867 -13.941838 0.000000 -0.000000 0.000000 2.467900 4.111727 -20.475898 -0.085713 5.273223 35.550531 1.849818 -6.004523 -17.474878 0.000000 -0.000000 0.000000 -2.597356 1.226325 22.713887 0.339453 -1.825952 -1.826601 0.454141 -0.226390 3.244559 -0.840199 10.079282 -1.530622 -0.990013 3.998990 -1.972284 -18.935973 0.513678 0.253845 -59.393573 -4.132790 11.627338 6.515501 -33.852229 20.555282 10.040732 -10.311590 -2.891342 19.085414 4.256172 -1.095908 56.118880 5.364430 17.777738 -7.253226 40.207466 28.662344 -2.449009 8.081927 17.467716 
0.014684 -0.642823 0.975404 8.535164 -2.806210 89.805357 -0.561590 -4.679389 -18.547287 -14.636381 -13.602932 26.625738 -3.445075 -2.130795 -16.138107 0.000000 -0.000000 0.000000 2.198004 2.768674 -22.424334 -0.173572 4.557812 35.929829 1.540576 -7.457132 -17.525740 0.000000 -0.000000 0.000000 -1.680100 1.395487 23.907214 0.333653 -1.662732 -2.854441 0.085373 -0.379692 3.371320 -0.923442 9.291603 -2.592818 -1.181108 2.376838 -1.807018 -19.017903 1.891843 0.534753 -54.971414 -2.809134 9.317276 5.768985 -30.669595 22.209067 9.007271 -10.809775 0.035254 18.820745 2.317759 -1.066030 53.724536 3.457382 13.998169 -10.335660 35.400453 25.547252 -2.302515 7.681264 18.341959 
